<?xml version="1.0" encoding="UTF-8"?>
<svg id="Layer_1" data-name="Layer 1" xmlns="http://www.w3.org/2000/svg" version="1.1" viewBox="0 0 484.4 118.7">
  <defs>
    <style>
      .cls-1 {
        fill: none;
      }

      .cls-1, .cls-2, .cls-3 {
        stroke-width: 0px;
      }

      .cls-2 {
        fill: #58595b;
      }

      .cls-3 {
        fill: #5aad5a;
      }
    </style>
  </defs>
  <g>
    <path class="cls-3" d="M49.5,74.1c-1.2,1.1-1.2,2.9-.2,4.1,1.1,1.2,2.9,1.2,4.1.2,1.2-1.1,1.2-2.9.2-4.1-1.1-1.2-2.9-1.2-4.1-.2Z"/>
    <path class="cls-3" d="M96.9,67.2c-.3-.4-.7-.7-1.1-.7-.5,0-.9,0-1.3.3-.4.3-.6.7-.7,1.1,0,.5,0,.9.3,1.3,1.5,2.3,2.3,4.9,2.3,7.7,0,7.6-6.2,13.8-13.8,13.8s-8.1-1.9-10.7-5.1c3.2-1.7,8.8-5.1,12.7-10,4.1-5.2,6.5-10.4,7.3-15.6.8-5.4-.4-12.9-3.2-18.5.2,0,.3,0,.5,0,2.5,0,5.4-.7,7.4-2.2,2-1.5,2.8-3.6,2.5-6-.3-2.6-1.6-4-2.6-4.7-1.5-1-3.5-1.2-4.7-.9-1.6.4-2.8,1.4-3.4,2.8-.5,1.2-.5,2.7.1,3.9.3.6,1.1.8,1.7.5.6-.3.8-1.1.5-1.7-.3-.5-.3-1.2,0-1.7.3-.6.9-1.1,1.8-1.3.6-.1,1.8-.1,2.7.5.9.6,1.4,1.6,1.6,3,.2,1.5-.3,2.8-1.6,3.7-2.3,1.8-6.1,2-8,1.4l-1.1-1.6s-1-1.2-1.5-1.7c-6.3-6.8-15.2-10-24.2-9.5-1.2-1.3-2.5-2.6-3.7-3.9-.9-.9-2.2-2.7-3.7-2.6-.8,0-1.9,1.1-2.6,1.5-1.1.7-2.3,1.6-3.3,2.5-1.9,1.8-3.5,4.1-3.4,6.7,0,.4,0,.7.1,1-1.9,1.2-3.7,2.5-5.3,4.1-1.2,1.1-2.3,2.3-3.3,3.5-.4-.1-.8-.2-1.3-.3-2.7-.3-5,1-7,2.8-1,.9-1.8,1.9-2.6,2.9-.7.9-2.1,2-1.8,3.3.3,1.2,1.3,2.1,2.1,3,1,1.2,2.1,2.4,3.2,3.6-1,4.8-.8,9.6.3,14.2-1.1,1.9-2,4-2.4,6.2-.3,1.5-.9,3.4-.2,4.8l10.1,11c.4.4,1.1.6,1.6.3l6.5-3c2.5,1.2,5.2,2.1,7.9,2.6l2.4,8c.3,1,1.3,1.8,2.3,1.5,2-.7,8.6-1.6,13-12,3.3,4.1,8.1,6.4,13.5,6.4,9.5,0,17.3-7.7,17.3-17.3s-1-6.8-2.9-9.7ZM57.2,95.4l-2.9-8.7c-3.9-.4-7.7-1.6-11-3.6l-6.3,3.2-7.8-8.3c0-1.1.3-2.4.8-3.8.6-1.6,1.4-3.2,2.2-4.7-1.8-5.3-2-11-.5-16.6l-.8-.9-2.1-2.2-2.1-2.3s.1-.1.1-.1c1.5-1.9,3.8-4.7,6-4.8.2,0,.4,0,.5,0,.2,0,.5,0,.7,0,0,0,0,0,0,0,.2,0,.5,0,.7.2,0,0,0,0,0,0,.5.1.9.3,1.3.5,1.3-1.9,2.8-3.6,4.6-5.2,2.2-2,4.6-3.7,7.1-5,0-.2-.1-.4-.2-.6,0-.1,0-.2,0-.3,0-.2,0-.4-.1-.7,0-.1,0-.3,0-.4,0-.7,0-1.3.2-2,0-.2.1-.4.2-.6,0,0,0-.1,0-.2h0c1-1.7,3.2-3.3,4.8-4.3h0s1.7,1.8,1.7,1.8c.2.2.4.4.6.7l3,3.3c8.5-1,17.1,1.7,23.1,8.2,0,0,0,0,0,0,5.5,5.9,7.6,13.9,6.6,21.7,0,0,0,0,0,0,0,0,0,.1,0,.2-.2,1.3-.6,2.6-1.2,3.9,0,0-5.7,14.8-20.2,20.1,0,0-2.6,9.3-9.4,11.4Z"/>
  </g>
  <g>
    <path class="cls-2" d="M148.9,48.5c-1.2-1.4-2.6-2.6-4.3-3.5-2.5-1.4-5.4-2.1-8.5-2.1-5.5,0-9.9,1.7-13,5.1-3.1,3.4-4.7,7.8-4.7,13.3s1.5,9.7,4.6,13c3.1,3.4,7.3,5.1,12.7,5.1s6-.7,8.7-2.1c1.8-.9,3.3-2.1,4.6-3.5v7.5c0,7.2-4.1,10.7-12.6,10.7s-11.1-2.7-11.6-8.3v-.9h-4.4v1c.3,4.5,2.1,7.8,5.5,9.9,2.7,1.7,6.3,2.5,10.5,2.5,11.3,0,17.1-5,17.1-14.8v-37.7h-4.4v4.8ZM145.3,51.1c2.4,2.8,3.5,6.2,3.5,10.2s-1.2,7.4-3.6,9.9h0c-2.4,2.6-5.7,3.9-9.9,3.9s-7.3-1.4-9.5-4.1c-2.1-2.5-3.2-5.9-3.2-9.9s1.2-7.4,3.5-10c2.5-2.7,5.7-4.1,9.8-4.1s7.1,1.4,9.4,4.1Z"/>
    <path class="cls-2" d="M179.6,42.8h-.9c-4.8,0-8.8,1.3-12,3.9h0c-.7.6-1.4,1.3-1.9,2v-5.1h-4.4v35.9h4.4v-14.6c0-5.1,1-9.2,2.9-12.4,2.3-3.8,5.9-5.6,11-5.6h.9v-4.2Z"/>
    <path class="cls-2" d="M291.7,46c-2.6-2.1-6.1-3.1-10.4-3.1s-9.4,1.6-12.1,4.8v-3.9h-4.4v35.9h4.4v-20.1c0-3.7,1.1-6.8,3.3-9.1,2.2-2.3,5.2-3.4,8.9-3.4s5.8.8,7.6,2.4c1.8,1.6,2.7,3.9,2.7,6.9v23.3h4.4v-24c0-4.1-1.5-7.3-4.5-9.6Z"/>
    <rect class="cls-2" x="318.8" y="43.4" width="4.4" height="36.2"/>
    <path class="cls-2" d="M337.6,46.8h0c-.7.6-1.4,1.3-1.9,2v-5.1h-4.4v35.9h4.4v-14.6c0-5.1,1-9.2,2.9-12.4,2.3-3.8,5.9-5.6,11-5.6h.9v-4.2h-.9c-4.8,0-8.8,1.3-12,3.9Z"/>
    <path class="cls-2" d="M369.4,42.9c-5.6,0-10.1,1.7-13.5,5.2-3.3,3.4-5,8-5,13.6s1.6,10,4.9,13.4c3.3,3.5,7.9,5.3,13.5,5.3s10.1-1.7,13.5-5.2c3.4-3.4,5.1-8,5.1-13.6s-1.7-10.2-5-13.6c-3.3-3.4-7.9-5.2-13.4-5.2ZM383.5,61.7c0,4.4-1.3,7.9-3.8,10.6-2.5,2.6-6,4-10.3,4s-7.8-1.3-10.3-4c-2.5-2.6-3.8-6.2-3.8-10.6s1.3-8,3.8-10.7c2.5-2.6,5.9-4,10.3-4s7.9,1.3,10.4,3.9c2.5,2.6,3.8,6.2,3.8,10.7Z"/>
    <path class="cls-2" d="M457.1,43.5v19.6c0,4-1,7.2-2.9,9.5-2.1,2.4-5.2,3.7-9.2,3.7s-5.9-.8-7.7-2.4c-1.8-1.6-2.7-3.9-2.7-7.1v-23.3h-4.4v23.3c0,4.4,1.4,7.8,4.1,10.2,2.7,2.3,6.3,3.5,10.7,3.5s9.4-1.6,12.1-4.9v5.5h0s0,.4,0,.4c0,7.7-3.1,10.7-11.2,10.7s-11.1-2.7-11.6-8.4v-.9h-4.4v1c.3,4.5,2.1,7.8,5.5,9.9,2.7,1.7,6.3,2.5,10.5,2.5,10.5,0,15.4-4.3,15.7-13.9v-38.9s-4.3,0-4.3,0Z"/>
    <path class="cls-2" d="M420,46c-2.6-2.1-6.1-3.1-10.3-3.1s-9.4,1.6-12.1,4.8v-4h-4.4v35.9h4.4v-20c0-3.7,1.1-6.8,3.3-9.1,2.2-2.3,5.2-3.4,8.9-3.4s5.8.8,7.6,2.4c1.8,1.6,2.7,3.9,2.7,6.9v22.5h0s0,1.3,0,1.3h4.4c0,0,0-24.5,0-24.5,0-4.1-1.5-7.3-4.5-9.6Z"/>
    <path class="cls-2" d="M321,31.8c-.9,0-1.7.3-2.4.9-1.3,1.2-1.4,3.3-.2,4.6.6.6,1.4,1,2.3,1,0,0,0,0,.1,0,.8,0,1.6-.3,2.2-.9.6-.6,1-1.4,1-2.3s-.3-1.7-.9-2.4-1.4-1-2.3-1Z"/>
  </g>
  <g>
    <path class="cls-1" d="M208.4,51c-2.4-2.6-5.9-3.8-10.2-3.8s-7.7,1.3-10.1,3.9c-2.4,2.6-3.7,6.1-3.7,10.5s0,1.1,0,1.7l26.3-8.4c-.6-1.5-1.4-2.8-2.4-3.8Z"/>
    <path class="cls-2" d="M211.8,64.8c-.5,2.8-1.7,5.2-3.5,7.1-2.5,2.6-5.9,3.9-10.1,3.9s-7.6-1.3-10.1-3.9c-1.1-1.1-1.9-2.4-2.5-3.8l29.1-9.3,2.1-.7v-.5c-.7-3.9-2.3-7.3-4.9-9.9-3.4-3.5-8-5.2-13.6-5.2s-10.3,1.8-13.7,5.2c-3.4,3.5-5.1,8.1-5.1,13.8s1.7,10.2,4.9,13.6c3.4,3.6,8,5.4,13.7,5.4s10.3-1.8,13.7-5.2c2.6-2.6,4.2-5.9,4.8-9.8v-.6c.1,0-.2,0-.2,0h-4.6ZM184.4,61.5c0-4.4,1.2-7.9,3.7-10.5,2.4-2.6,5.8-3.9,10.1-3.9s7.8,1.3,10.2,3.8c1,1,1.8,2.3,2.4,3.8l-26.3,8.4c0-.6,0-1.1,0-1.7Z"/>
  </g>
  <g>
    <path class="cls-1" d="M250.4,51c-2.4-2.6-5.9-3.8-10.2-3.8s-7.7,1.3-10.1,3.9c-2.4,2.6-3.7,6.1-3.7,10.5s0,1.1,0,1.7l26.3-8.4c-.6-1.5-1.4-2.8-2.4-3.8Z"/>
    <path class="cls-2" d="M253.8,64.8c-.5,2.8-1.7,5.2-3.5,7.1-2.5,2.6-5.9,3.9-10.1,3.9s-7.6-1.3-10.1-3.9c-1.1-1.1-1.9-2.4-2.5-3.8l29.1-9.3,2-.7v-.3s0-.2,0-.2c-.6-3.9-2.2-7.3-4.8-9.9-3.4-3.5-8-5.2-13.6-5.2s-10.3,1.8-13.7,5.2c-3.4,3.5-5.1,8.1-5.1,13.8s1.7,10.2,4.9,13.6c3.4,3.6,8,5.4,13.7,5.4s10.3-1.8,13.7-5.2c2.6-2.6,4.2-5.9,4.8-9.8v-.6c.1,0-.2,0-.2,0h-4.6ZM226.4,61.5c0-4.4,1.2-7.9,3.7-10.5,2.4-2.6,5.8-3.9,10.1-3.9s7.8,1.3,10.2,3.8c1,1,1.8,2.3,2.4,3.8l-26.3,8.4c0-.6,0-1.1,0-1.7Z"/>
  </g>
</svg>