<?xml version="1.0" encoding="utf-8"?>
<svg xmlns="http://www.w3.org/2000/svg" x="0px" y="0px" width="300px" height="129px">
<path fill="#00703C" d="M110.6,111.4c-0.9-5-4.2-7.6-9.8-7.5c-7.4,0.2-9.5,6.7-9.3,12.5c0.2,5.7,3.2,11.5,10.3,11.3
	c6-0.1,8.3-3.6,9.2-7.8l1,0.1c-0.5,2.2-0.6,4.4-0.8,6.7c-2.4,0.1-4.8,1.8-9.7,1.9c-9,0.2-14.3-5.6-14.4-12.3
	c-0.2-7.3,5.6-13.1,13-13.3c6-0.1,7.2,1.6,9.4,1.6c0.6,0,0.9-0.3,1.3-0.6l0.8,0.1c0,1.2-0.1,2.4,0,3.6c0,1.2,0.1,2.4,0.2,3.6
	L110.6,111.4z M209.9,120.4c-0.1,1.2-0.5,7.5-0.5,7.5h-23.1c-4,0-5.3-1.7-5.3-6c0-5.7-2.2-6.4-6.6-6.4H172v9.8
	c0,1.3,1.5,1.5,3.9,1.5v1l-21.3,0v-1c1.6-0.1,3-0.3,3-0.8c0-0.1,0-0.3-0.2-0.9l-2.4-6.5h-6.4c-1.1,0-1.4,0.3-1.6,0.7l-2.2,5.6
	c-0.2,0.4-0.2,0.7-0.2,1c0,0.4,0.1,1,3.1,1.1c0,0,0,1,0,1c0,0-18.8,0-18.8,0v-1c2.1-0.1,3.9-0.2,3.9-1.2v-10h-12.4v9.8
	c0,1,1.7,1.3,3.8,1.3v1h-11.4v-1c2.2-0.1,3.9-0.4,3.9-1.3v-19.7c0-1-1.7-1.2-3.6-1.3v-0.9h11.1v0.9c-2.1,0.1-3.8,0.3-3.8,1.3v9h12.4
	v-9c0-1-1.7-1.2-3.8-1.3v-0.9h11.2v0.9c-2,0.1-3.7,0.3-3.7,1.3v19.5c0,1.3,0.9,1.6,2.8,1.6c2.2,0,3.4-0.8,3.8-1.9l9-21.7h0.9
	l8.8,21.8c0.5,1.4,1.3,1.8,3.4,1.8c2.1,0.1,3.1-0.3,3.1-1.5v-19.5c0-1-1.7-1-3.8-1.3v-1c1.6,0.2,10.7,0.1,13,0.1
	c4.6,0,7.3,2.1,7.3,5.4c0,3.4-2.8,5.1-6,5.7v0.2c4.4,0.9,6.1,2.4,6.5,8.7c0.2,2.5,1.6,3.1,3.8,3.2c2.5,0,3.7-0.6,3.7-2.1v-18.9
	c0-1-1.7-1-3.8-1.3v-0.9h11.9v0.9c-2.5,0.3-4.2,0.3-4.2,1.3v18.8c0,1.3,0.7,1.9,2.2,1.9h3.6c4.5,0,5.1-0.8,6.2-6.3H209.9z
	 M154.6,117.6l-3.4-8.8h-0.1l-2.9,7.6c-0.1,0.3-0.2,0.6-0.2,0.8c0,0.2,0.1,0.3,0.4,0.3L154.6,117.6z M173.8,114.7
	c4.2,0,7.6-1.3,7.6-5.2c0-3.3-2.6-4.8-6-4.8H172v10.1H173.8 M221.6,103.4c8.4,0,13.2,6.2,13.2,12.5c0,6.3-4.8,12.4-13.2,12.4
	c-8.4,0-13.2-6.2-13.2-12.4C208.4,109.6,213.2,103.4,221.6,103.4 M221.6,127.4c5.5,0,8.8-4.3,8.8-11.6c0-7.3-3.3-11.6-8.8-11.6
	c-5.5,0-8.8,4.3-8.8,11.6C212.8,123.2,216.1,127.4,221.6,127.4 M255.3,104c0.1,0,0.1,0,0.2,0C255.4,104,255.4,104,255.3,104
	L255.3,104 M277.7,103.8c0,0.5,0.7,4.6,0.7,6.4h-1.1c-0.7-3.9-1-5.2-8.7-5.2v20.7c0,1,1.7,1.2,4,1.3v1h-11.9v-1c2.3-0.1,4-0.3,4-1.3
	V105c-0.7,0-1.7,0-2.2,0c-5.9,0.1-5.9,0.6-6.5,4.2v0h-0.6c-0.6-3.5-0.5-4.1-6.1-4.2c-0.6,0-1.8,0-2.6,0v20.7c0,1,1.7,1.2,4,1.3v1
	h-11.8v-1c2.3-0.1,4-0.3,4-1.3V105c-7.7,0-8,1.2-8.7,5.2h-1.1c0-1.7,0.7-5.9,0.7-6.4c3.9,0,6.7,0.2,10.6,0.2h21.8h0.8
	C270.9,104,273.8,103.8,277.7,103.8 M297.7,121c-0.9,4.5-2,5.7-4.8,5.7H288c-1.5,0-2.3-0.6-2.3-1.9v-8.9h2.7c3.3,0,4.2,0,4.2,3.7
	h1.4c0-1.2,0-2.1,0-2.8c0-2.4,0.1-4.4,0.2-5.9h-1.4c-0.5,4.1-1.2,4.1-4.8,4.1h-2.2v-10h5.1c4,0,5.8,1,5.9,4.8h1
	c0-1.8-0.1-6.3-0.1-6.3s-18.1,0.3-19.5,0.3c0,0.3,0.1,0.6,0.1,0.9c1.7,0.1,3.4,0.1,3.4,1.3v19.8c0,1-1.7,1.1-4,1.2v1h20.7l0.5-7
	H297.7z M75.7,111.3c-0.1-1.2-0.2-2.4-0.2-3.6c0-1.2,0-2.4,0-3.6l-0.8-0.1c-0.4,0.3-0.7,0.6-1.3,0.6c-2.2,0.1-3.4-1.7-9.4-1.6
	c-7.4,0.2-13.2,6-13,13.3c0.2,6.7,5.4,12.5,14.4,12.3c5-0.1,7.3-1.9,9.7-1.9c0.1-2.2,0.3-4.5,0.8-6.7l-1-0.1
	c-0.9,4.1-3.2,7.6-9.2,7.8c-7.1,0.2-10.1-5.6-10.3-11.3c-0.2-5.8,1.9-12.3,9.3-12.5c5.6-0.1,8.9,2.5,9.8,7.5L75.7,111.3z
	 M43.8,103.7v0.9c3.4,0.4,3.5,0.4,3.5,3.9V123h-0.1l-14.7-19.2l-14.5,0v1c3.2,0.3,3.8,0.4,3.8,3.8v8.8c0,5.3-2,9.6-6.8,9.6
	c-0.2,0-1,0-1.1,0c-3.6-0.2-6-3.1-6-8.2v-10.9c0-2.9,0.5-2.9,3.5-3.2v-0.9c-0.9,0-9.5,0-10.5,0v0.9c2.7,0.1,3.2,0.3,3.2,2.7v10.9
	c0,7.1,4.3,10,9,10c0.3,0,1.1,0,1.4,0c6.1-0.3,8.6-4.3,8.6-10.6v-8.8c0-3.3,1.3-4.2,3.5-4.2c2.3,0,3.2,1.5,3.2,3.4v14.8
	c0,3.7-0.5,3.9-3.6,4.2l0,1c0.4,0,8,0,8,0v-1c-3.2-0.3-3.4-0.7-3.4-2.6v-16.5H31l15.9,20.1h1.5v-20.7c0-2.3,0.5-2.3,3-2.6v-0.9
	L43.8,103.7z M149.9,0.4l-13.4,13.1l13.4,13.1l13.4-13.1L149.9,0.4z M146.8,85.1l-9.1-57.9H97.1l10.2,16.3h20L146.8,85.1z
	 M110.2,48.4H79l16,15.8H108L134,89L110.2,48.4z M172.5,43.5h20l10.2-16.3h-40.5l-9.1,57.9L172.5,43.5z M166,89l26-24.8H205l16-15.8
	h-31.2L166,89z M103.3,73.1l-13.1,0l18.1,17.4h13L103.3,73.1z M178.5,90.5h13l18.1-17.4l-13.1,0L178.5,90.5z"/>
</svg>
