<svg id="Layer_1" data-name="Layer 1" xmlns="http://www.w3.org/2000/svg" viewBox="0 0 952.34 502.24"><defs><style>.cls-1{fill:#005640;}.cls-2{fill:#aa9767;}</style></defs><path class="cls-1" d="M495,161.62c-4.7,35.11-5,70.2-4.47,105.05-18.78-31.45-28.38-66.5-26-103.57l-5.69.26a1.89,1.89,0,0,1-2.06-1.57l-11,.54a1.54,1.54,0,0,1-1.69-1.86l9.14-27.08a2.23,2.23,0,0,1,2.26-1.7l5.77.61a2.76,2.76,0,0,1,2.58-1.64l5.61.26c9.1-37.07,29.5-72.12,58-103.56-11.27,34.85-21.8,69.93-27.93,105l8,3.29L584,131.92a2.46,2.46,0,0,0,2.37-1.88v0c4.81-27.71,10.91-58.64,16.8-86.11a4.16,4.16,0,0,0-.9-3.71Q591.42,27,580.78,13.55A4.86,4.86,0,0,0,577,11.77Q511.21,8.58,445.38,5.45a6.37,6.37,0,0,0-4.3,1.49q-16.63,12.94-33.14,26.24a6.62,6.62,0,0,0-2.49,3.9,2314.42,2314.42,0,0,0-35.3,231.36,4.84,4.84,0,0,0,1.29,3.94q12.31,13.2,24.79,26.13c.92.95,3.81.66,3.81.66H527s3.17-.7,4.26-1.73c9.91-9.38,25.22-24.84,35.23-34,1.24-1.13,1.94-5.06,2.1-6.48q3.23-29.23,7.26-58.32.49-3.56,1-7.1c1.27-9,2.89-18.81,4.36-28a3.17,3.17,0,0,0-3.15-3.63l-74.13-1.28Z" transform="translate(-10.51 -5.44)"/><path class="cls-2" d="M20.73,362.9l4.19-25.57h5.72l-4.2,26.36a3.25,3.25,0,0,0,3.28,4.18c2.24,0,3.78-1.49,4.23-4.13l4.21-26.41H44l-4.34,26.81c-.9,5.57-4.56,9.05-10.33,9.05C23.38,373.19,19.88,368.27,20.73,362.9Z" transform="translate(-10.51 -5.44)"/><path class="cls-2" d="M83.75,337.33,78.11,372.5H73.18l-5.59-23.28L63.87,372.5H58.94l5.65-35.17h4.92l5.54,23.23,3.72-23.23Z" transform="translate(-10.51 -5.44)"/><path class="cls-2" d="M104.36,337.33h5.72l-5.64,35.17H98.71Z" transform="translate(-10.51 -5.44)"/><path class="cls-2" d="M145.85,337.33,133.69,372.5h-7.22L125,337.33h5.48l1,26.16,8.64-26.16Z" transform="translate(-10.51 -5.44)"/><path class="cls-2" d="M171.32,342.65l-1.6,10h7.22l-.81,5.32h-7.27l-1.47,9.25h9.36l-.81,5.33H160.81l5.64-35.17h15.08l-.8,5.32Z" transform="translate(-10.51 -5.44)"/><path class="cls-2" d="M219.43,346.43l-.57,3.63a9.63,9.63,0,0,1-4.93,7.21l2.58,15.23H211l-2.33-13.83h-4.28l-2.2,13.83H196.5l5.64-35.17H211C216.67,337.33,220.33,341.11,219.43,346.43Zm-9-3.78H207l-1.72,10.7h3.49a4.36,4.36,0,0,0,4.45-3.69l.49-3.18C214.16,343.84,213,342.65,210.44,342.65Z" transform="translate(-10.51 -5.44)"/><path class="cls-2" d="M234.65,362.75l.16-1.2h5.82l-.2,1.25c-.54,3.23.92,5.22,3.61,5.22,2.94,0,4.1-2.34,4-5-.24-6.77-9.78-7.71-10.07-15.92-.21-6.22,3.72-10.45,10.09-10.45a8.18,8.18,0,0,1,8.49,9.3l-.33,2h-5.72l.29-1.74c.5-2.58-.56-4.43-3.1-4.43-2.88,0-4,2.24-4,4.73.2,6,9.76,7.21,10.06,15.92.23,6.67-3.66,10.79-10.28,10.79C237.35,373.19,233.8,368.52,234.65,362.75Z" transform="translate(-10.51 -5.44)"/><path class="cls-2" d="M277.27,337.33H283l-5.64,35.17h-5.72Z" transform="translate(-10.51 -5.44)"/><path class="cls-2" d="M317.37,342.65H310.5l-4.73,29.85H300l4.78-29.85H298l.81-5.32h19.41Z" transform="translate(-10.51 -5.44)"/><path class="cls-2" d="M343,360.11l-2,12.39h-5.72l2-12.74-4.17-22.48H339l2.28,15.57,7.17-15.57h6.13Z" transform="translate(-10.51 -5.44)"/><path class="cls-2" d="M391,362.9l2.84-17.21c.9-5.58,4.61-9.06,10.53-9.06a8.6,8.6,0,0,1,8.82,10.3l-2.78,17.21c-.9,5.57-4.61,9.05-10.59,9.05A8.61,8.61,0,0,1,391,362.9Zm13.72.84,2.77-17.61A3.27,3.27,0,0,0,404,342c-2.49,0-4,1.45-4.49,4.08l-2.81,17.66a3.3,3.3,0,0,0,3.53,4.18C402.62,367.87,404.21,366.38,404.67,363.74Z" transform="translate(-10.51 -5.44)"/><path class="cls-2" d="M438,342.65l-1.75,11.09h7.72l-.86,5.28h-7.72l-2.17,13.48h-5.72l5.64-35.17h15.08l-.81,5.32Z" transform="translate(-10.51 -5.44)"/><path class="cls-2" d="M508.48,337.33l-5.64,35.17h-4.93l-5.59-23.28-3.71,23.28h-4.93l5.64-35.17h4.93l5.54,23.23,3.71-23.23Z" transform="translate(-10.51 -5.44)"/><path class="cls-2" d="M522.8,362.9l2.83-17.21c.9-5.58,4.61-9.06,10.54-9.06,6.12,0,9.67,4.88,8.82,10.3l-2.79,17.21c-.9,5.57-4.61,9.05-10.58,9.05A8.61,8.61,0,0,1,522.8,362.9Zm13.72.84,2.76-17.61A3.27,3.27,0,0,0,535.8,342c-2.48,0-4,1.45-4.48,4.08l-2.82,17.66a3.31,3.31,0,0,0,3.53,4.18C534.47,367.87,536.06,366.38,536.52,363.74Z" transform="translate(-10.51 -5.44)"/><path class="cls-2" d="M582.23,346.43l-.57,3.63a9.59,9.59,0,0,1-4.92,7.21l2.57,15.23h-5.47l-2.33-13.83h-4.28L565,372.5H559.3l5.64-35.17h8.86C579.48,337.33,583.14,341.11,582.23,346.43Zm-9-3.78h-3.43l-1.72,10.7h3.48a4.35,4.35,0,0,0,4.45-3.69l.49-3.18C577,343.84,575.83,342.65,573.24,342.65Z" transform="translate(-10.51 -5.44)"/><path class="cls-2" d="M618.27,342.65H611.4l-4.73,29.85H600.9l4.78-29.85h-6.82l.81-5.32h19.41Z" transform="translate(-10.51 -5.44)"/><path class="cls-2" d="M655.3,337.33l-5.64,35.17h-5.72l2.33-14.58h-8l-2.33,14.58H630.2l5.64-35.17h5.73l-2.46,15.27h8l2.45-15.27Z" transform="translate(-10.51 -5.44)"/><path class="cls-2" d="M692.9,362.85l2.84-17.16c.9-5.58,4.61-9.06,10.48-9.06,6.17,0,9.73,4.88,8.82,10.3l-.62,3.58H708.7l.74-4.38a3.33,3.33,0,0,0-3.53-4.18c-2.49,0-4.08,1.45-4.54,4.08l-2.76,17.66a3.3,3.3,0,0,0,3.53,4.18c2.44,0,4-1.49,4.48-4.13l.69-4.48h5.77l-.77,4.88c-.91,5.42-4.61,9.05-10.54,9.05C695.6,373.19,692,368.37,692.9,362.85Z" transform="translate(-10.51 -5.44)"/><path class="cls-2" d="M742.42,364.54H735.7l-2.81,8h-5.57l12.21-35.17h7.22l1.52,35.17h-5.52Zm-5.11-5.28h4.93l-.68-15.17Z" transform="translate(-10.51 -5.44)"/><path class="cls-2" d="M789,346.43l-.57,3.63a9.65,9.65,0,0,1-4.92,7.21l2.57,15.23h-5.48l-2.33-13.83H774L771.8,372.5h-5.72l5.64-35.17h8.86C786.25,337.33,789.92,341.11,789,346.43Zm-9-3.78h-3.44l-1.71,10.7h3.48a4.36,4.36,0,0,0,4.45-3.69l.49-3.18C783.74,343.84,782.61,342.65,780,342.65Z" transform="translate(-10.51 -5.44)"/><path class="cls-2" d="M805,362.9l2.83-17.21c.9-5.58,4.61-9.06,10.54-9.06,6.12,0,9.67,4.88,8.81,10.3l-2.78,17.21c-.9,5.57-4.61,9.05-10.58,9.05A8.6,8.6,0,0,1,805,362.9Zm13.71.84,2.77-17.61A3.27,3.27,0,0,0,818,342c-2.49,0-4,1.45-4.48,4.08l-2.82,17.66a3.31,3.31,0,0,0,3.53,4.18C816.67,367.87,818.26,366.38,818.71,363.74Z" transform="translate(-10.51 -5.44)"/><path class="cls-2" d="M857.44,367.17l-.81,5.33H841.5l5.64-35.17h5.73l-4.78,29.84Z" transform="translate(-10.51 -5.44)"/><path class="cls-2" d="M879.78,337.33h5.72l-5.64,35.17h-5.72Z" transform="translate(-10.51 -5.44)"/><path class="cls-2" d="M923.67,337.33,918,372.5H913.1l-5.59-23.28-3.72,23.28h-4.92l5.64-35.17h4.93L915,360.56l3.71-23.23Z" transform="translate(-10.51 -5.44)"/><path class="cls-2" d="M950.59,364.54h-6.72l-2.81,8h-5.58l12.21-35.17h7.22l1.53,35.17h-5.53Zm-5.12-5.28h4.93l-.68-15.17Z" transform="translate(-10.51 -5.44)"/><path class="cls-1" d="M78.09,494.75c-26.73,0-48.52-19.06-48.52-50.22,0-25.7,14.81-47.15,41.54-47.15,14.64,0,29.11,5.79,29.45,23.15h6.13l5.1-26.22c-9-.85-24.68-4.25-38.3-4.25-39.15,0-63,28.09-63,60.26,0,33.54,26.21,57.37,59.75,57.37,30.64,0,43.92-20.94,43.92-20.94l-2.55-3.92A53.35,53.35,0,0,1,78.09,494.75Z" transform="translate(-10.51 -5.44)"/><path class="cls-1" d="M435.35,488.79l-24.51-36.43v-2.55c8.51-4.77,21.79-15.15,21.79-30.3,0-14.47-11.58-27.41-41.88-27.41H347.51v4.6C360.11,399.25,361,401,361,409.12v80.69c0,5.79-4.44,10.05-11.59,10.9-5.79-.85-8.68-3.07-12.42-12.94l-37.63-96.86-8.51,1.87-40,99.76c-1.19,3.13-3.69,6.26-9,7.44l-14.55-1.48a50.32,50.32,0,0,0,.85-9.2V413c0-14.13,5.62-20.77,5.62-20.77l-.85-.68s-4.43.51-22.48.51H197.49v4.6c12.25,2.55,12.25,4.25,12.25,12.42V442l-1.87,1.87H148.63V413c0-14.13,5.62-20.94,5.62-20.94l-.85-.68s-4.43.68-22.47.68H118.16v4.6c12.09,2.55,12.09,4.25,12.09,12.42V489.3c0,6.13-4.43,10.22-11.75,11.07v5.79l43.58-1,.68-5.1-15-1.53a50.32,50.32,0,0,0,.85-9.2V453.72l1.87-1.7h59.24v37.79c0,5.79-4.59,9.71-11.91,10.56v5.79l43.75-.52h30.17l.85-5.27-14.47-1.87L269,470.07l2.39-1.7h38.64l9.36,25c1.87,5.11-2.21,6.47-7,6.64v6.13l37-.18v.08l43.92-1,.45-5-15.32-1.53a43.55,43.55,0,0,0,.85-8.69V458l1.88-1.87h10.21l20.26,30.3a93.37,93.37,0,0,1,10.21,18.72l.68.51h28.26l.68-5.78-1.87-.17C445.73,499.35,442.5,499,435.35,488.79ZM272.6,460.36l17.87-46.64c.85,3.07,2.56,8,3.75,11.58l12.94,35.06ZM393,448.62H379.34v-47l1.88-1.87h5.44c18.73,0,25.71,11.24,25.71,24.52C412.37,440.45,402,448.62,393,448.62Z" transform="translate(-10.51 -5.44)"/><path class="cls-1" d="M506.27,498H483.2a53.52,53.52,0,0,0,.85-9.37V413c0-14.13,5.62-20.94,5.62-20.94l-.85-.68s-4.77.68-22.47.68H453.41v4.6c12.26,2.55,12.26,4.25,12.26,12.42v80.69c0,6.13-3.92,9.71-11.41,10.56v5.79s16.34-.52,26.22-.52h50.81L538.44,474h-6.13C523.8,492.2,520.57,498,506.27,498Z" transform="translate(-10.51 -5.44)"/><path class="cls-1" d="M601.6,390.06c-41.37,0-63.16,30.13-63.16,60.43,0,30,21.45,57.2,58.39,57.2,39.49,0,63.5-31.32,63.5-62.82C660.33,415.42,639.39,390.06,601.6,390.06Zm-1,110.14c-26.73,0-41.71-28.94-41.71-54.31,0-24.68,14-48.34,39.32-48.34,27.07,0,41.54,26.38,41.54,51.75C639.73,474.32,625.77,500.2,600.58,500.2Z" transform="translate(-10.51 -5.44)"/><path class="cls-1" d="M678,392.1a56,56,0,0,1-11.41-1l-5.28,29.45h6.13c6.64-17.36,11.75-20.77,23.15-20.77h12.18V489.3c0,6.13-4.43,10.22-11.75,11.07v5.79l45.62-1,.69-5.1-17-1.53a50.32,50.32,0,0,0,.85-9.2V401.63l1.88-1.87h11.83c12.94,0,18.55,3.41,18,20.77h6.3l5.28-29.45a71.65,71.65,0,0,1-12.26,1Z" transform="translate(-10.51 -5.44)"/><path class="cls-1" d="M783,392.1a56,56,0,0,1-11.41-1l-5.28,29.45h6.13c6.64-17.36,11.75-20.77,23.15-20.77h12.18V489.3c0,6.13-4.43,10.22-11.75,11.07v5.79l45.62-1,.69-5.1-17-1.53a50.32,50.32,0,0,0,.85-9.2V401.63l1.88-1.87h11.83c12.94,0,18.55,3.41,18,20.77h6.3l5.28-29.45a71.65,71.65,0,0,1-12.26,1Z" transform="translate(-10.51 -5.44)"/><path class="cls-1" d="M956.72,477.39c-8.51,17.87-10.55,20.6-25.19,20.6H906a56.83,56.83,0,0,0,.85-9.54v-34.9l1.87-1.87h28.09v12.77h8.34V433.3l-6.64,1-1.36,9.87h-30.3V401.63l1.87-1.87h20.94c13.62,0,19.23,3.24,18.38,20.77h6.13l5.28-29.11a117,117,0,0,1-12.6.68H875v4.6c12.6,2.55,13.45,4.25,13.45,12.42v80.69c0,6.13-4.42,9.71-11.74,10.56v5.79s16.68-.52,26.55-.52h53.28l6.3-28.25Z" transform="translate(-10.51 -5.44)"/></svg>