<svg width="238" height="47" viewBox="0 0 238 47" fill="none" xmlns="http://www.w3.org/2000/svg">
<g clip-path="url(#clip0_567_1872)">
<path d="M73.1631 22.2972C72.3919 21.3135 71.5104 20.439 70.2983 19.7832C68.8659 19.0181 67.2131 18.5809 65.34 18.5809C62.1446 18.5809 59.6104 19.5646 57.8474 21.5321C56.0844 23.4995 55.0928 26.0135 55.0928 29.0739C55.0928 32.1344 55.9743 34.6484 57.7372 36.5065C59.5002 38.4739 61.9243 39.3484 65.0094 39.3484C66.7724 39.3484 68.4252 38.9111 69.9678 38.146C71.1798 37.4902 72.1715 36.7251 72.9428 35.7414V38.3646C72.9428 42.7367 70.4085 44.8135 65.34 44.8135C60.9326 44.8135 58.6187 43.1739 58.2881 39.7856V39.4577H56.1946V39.7856C56.3048 42.2995 57.4067 44.1577 59.2798 45.36C60.8224 46.3437 62.9159 46.7809 65.34 46.7809C71.8409 46.7809 75.1465 43.939 75.1465 38.3646V19.1274H73.053V22.2972H73.1631ZM70.9594 23.0623C72.3919 24.7018 73.053 26.7786 73.053 29.1832C73.053 31.5879 72.2817 33.6646 70.8493 35.0856C69.4169 36.6158 67.4335 37.3809 64.8993 37.3809C62.4752 37.3809 60.4918 36.5065 59.1696 34.9763C57.8474 33.446 57.1863 31.4786 57.1863 29.0739C57.1863 26.6693 57.8474 24.7018 59.2798 23.0623C60.7122 21.4228 62.6956 20.6577 65.2298 20.6577C67.6539 20.6577 69.6372 21.4228 70.9594 23.0623ZM89.14 20.6577C86.0548 20.6577 83.9613 21.7507 82.5289 24.046C81.3169 25.9042 80.7659 28.4181 80.7659 31.3693V39.567H78.6724V19.1274H80.7659V22.5158C81.2067 21.9693 81.6474 21.4228 82.3085 20.8763C84.0715 19.346 86.3854 18.6902 89.2502 18.6902H89.5807V20.6577H89.14ZM149.852 25.7949V39.567H147.759V26.2321C147.759 24.3739 147.208 23.0623 146.106 22.0786C145.004 21.0949 143.461 20.6577 141.478 20.6577C139.164 20.6577 137.401 21.3135 136.079 22.7344C134.757 24.1553 134.096 25.9042 134.096 28.1995V39.6763H132.002V19.1274H134.096V21.86C135.638 19.7832 138.062 18.6902 141.368 18.6902C143.792 18.6902 145.775 19.2367 147.318 20.4391C148.971 21.6414 149.852 23.4995 149.852 25.7949ZM159.548 19.0181H161.642V39.6763H159.548V19.0181ZM175.635 20.6577C172.55 20.6577 170.457 21.7507 169.024 24.046C167.812 25.9042 167.261 28.4181 167.261 31.3693V39.567H165.168V19.1274H167.261V22.5158C167.702 21.9693 168.143 21.4228 168.804 20.8763C170.567 19.346 172.881 18.6902 175.746 18.6902H176.076V20.6577H175.635ZM193.265 21.6414C191.392 19.6739 188.747 18.6902 185.552 18.6902C182.357 18.6902 179.712 19.6739 177.839 21.6414C175.966 23.6088 174.974 26.2321 174.974 29.4018C174.974 32.5716 175.966 35.0856 177.729 37.053C179.602 39.0204 182.246 40.1135 185.552 40.1135C188.747 40.1135 191.392 39.1297 193.375 37.1623C195.359 35.1949 196.35 32.5716 196.35 29.4018C196.13 26.2321 195.138 23.6088 193.265 21.6414ZM194.036 29.4018C194.036 32.0251 193.265 34.1018 191.722 35.7414C190.18 37.2716 188.086 38.146 185.552 38.146C182.908 38.146 180.924 37.3809 179.382 35.7414C177.839 34.2111 177.068 32.0251 177.068 29.4018C177.068 26.7786 177.839 24.5925 179.382 23.0623C180.924 21.5321 183.018 20.6577 185.552 20.6577C188.196 20.6577 190.29 21.4228 191.833 23.0623C193.265 24.5925 194.036 26.7786 194.036 29.4018ZM107.1 34.867C106.88 35.1949 106.659 35.4135 106.439 35.6321C104.676 37.3809 102.472 38.2553 100.048 38.2553C97.8446 38.2553 95.8613 37.4902 94.2085 36.0693L108.312 22.0786V21.86C108.202 21.7507 108.092 21.6414 107.982 21.5321C107.651 21.2042 107.321 20.8763 106.99 20.6577C105.007 19.1274 102.693 18.3623 100.048 18.3623C96.9632 18.3623 94.3187 19.4553 92.2252 21.6414C90.0215 23.8274 88.9196 26.4507 88.9196 29.4018C88.9196 32.4623 90.0215 35.0856 92.2252 37.1623C94.4289 39.3484 97.0733 40.4414 100.048 40.4414C103.134 40.4414 105.778 39.3484 107.871 37.1623C108.312 36.7251 108.753 36.2879 109.084 35.7414L109.194 35.6321L107.1 34.867ZM92.7761 34.539C91.6743 33.0088 91.1233 31.26 91.1233 29.2925C91.1233 26.8879 92.0048 24.7018 93.7678 23.0623C95.5307 21.3135 97.6243 20.4391 100.048 20.4391C102.032 20.4391 103.795 20.9856 105.337 22.0786L92.7761 34.539ZM127.925 34.867C127.705 35.1949 127.484 35.4135 127.264 35.6321C125.501 37.3809 123.408 38.2553 120.984 38.2553C118.78 38.2553 116.796 37.4902 115.144 36.0693L127.815 23.4995L129.247 22.0786L129.137 21.9693C129.027 21.86 128.917 21.7507 128.807 21.6414C128.476 21.3135 128.146 20.9856 127.815 20.767C125.832 19.2367 123.518 18.4716 120.873 18.4716C117.788 18.4716 115.144 19.5646 113.05 21.7507C110.846 23.9367 109.745 26.56 109.745 29.5111C109.745 32.5716 110.846 35.1949 113.05 37.2716C115.254 39.4577 117.898 40.5507 120.873 40.5507C123.959 40.5507 126.603 39.4577 128.696 37.2716C129.137 36.8344 129.578 36.3972 129.909 35.8507L130.019 35.7414L127.925 34.867ZM126.052 22.1879L113.601 34.539C112.499 33.0088 111.948 31.26 111.948 29.2925C111.948 26.8879 112.83 24.7018 114.593 23.0623C116.356 21.3135 118.449 20.4391 120.873 20.4391C122.857 20.4391 124.62 20.9856 126.052 22.1879ZM237.009 19.0181V38.146V38.3646V38.4739C237.009 38.5832 237.009 38.6925 237.009 38.8018C236.898 43.939 233.593 46.6716 227.533 46.8902H223.786C223.676 46.8902 223.566 46.8902 223.456 46.8902C221.032 46.8902 219.048 46.453 217.506 45.4693C215.633 44.267 214.531 42.2995 214.421 39.8949V39.567V26.2321C214.421 24.3739 213.87 23.0623 212.768 22.0786C211.666 21.0949 210.123 20.6577 208.14 20.6577C205.826 20.6577 204.063 21.3135 202.741 22.7344C201.419 24.1553 200.758 25.9042 200.758 28.1995V39.6763H198.664V19.1274H200.758V21.86C202.3 19.6739 204.724 18.6902 208.14 18.6902C210.564 18.6902 212.547 19.2367 214.09 20.4391C215.743 21.7507 216.624 23.4995 216.624 25.7949V39.567V39.7856C216.955 43.1739 219.159 44.8135 223.676 44.8135C223.786 44.8135 223.786 44.8135 223.896 44.8135H227.643C232.491 44.7042 234.915 42.6274 235.025 38.6925V38.2553V38.146V36.8344C233.483 39.0204 231.059 40.1135 227.643 40.1135C225.109 40.1135 223.015 39.4577 221.472 38.146C219.93 36.8344 219.159 34.867 219.159 32.353V19.0181H221.252V32.353C221.252 34.2111 221.803 35.7414 222.905 36.6158C224.007 37.5995 225.549 38.0367 227.643 38.0367C230.067 38.0367 231.94 37.2716 233.262 35.8507C234.474 34.4297 235.025 32.5716 235.025 30.167V19.0181H237.009Z" fill="black"/>
<path d="M19.8336 31.5883C20.7151 32.572 20.7151 33.9929 19.7234 34.8673C18.7318 35.7417 17.2994 35.7417 16.4179 34.758C15.5364 33.7743 15.5364 32.3534 16.5281 31.479C17.5197 30.6045 18.9521 30.7138 19.8336 31.5883ZM46.1679 36.179C46.1679 38.8022 45.066 41.2069 43.1929 43.065C41.6503 44.4859 39.7771 45.4697 37.7938 45.6883C37.2429 45.7976 36.8021 45.7976 36.2512 45.7976C33.6068 45.7976 31.1827 44.7045 29.3096 42.8464C28.8688 42.4092 28.5383 41.972 28.2077 41.4255C24.0207 47.4371 19.9438 46.8906 19.9438 46.8906L18.291 41.3162C16.6383 40.9883 15.0957 40.551 13.6633 39.7859L9.36603 41.7534C9.14566 41.8627 6.39103 38.5836 6.06048 38.2557C5.50955 37.7092 4.95863 37.0534 4.4077 36.5069C3.74659 36.0697 3.08548 35.6324 2.75492 34.9766C2.31418 34.2115 2.64474 33.0092 2.86511 32.2441C3.08548 30.9324 3.6364 29.7301 4.29752 28.6371C3.6364 26.0138 3.52622 23.172 4.07714 20.3301C3.41603 19.6743 2.75492 18.9092 2.204 18.2534C1.76326 17.7069 1.21233 17.1604 0.991959 16.5045C0.771589 15.7394 1.65307 15.0836 1.98363 14.5371C2.42437 13.8813 2.97529 13.3348 3.52622 12.7883C4.62807 11.8045 6.06048 10.9301 7.60307 11.1487C7.82344 11.1487 8.154 11.258 8.37437 11.3673C8.92529 10.6022 9.5864 9.9464 10.3577 9.29058C11.3494 8.41617 12.341 7.65105 13.4429 6.88593C13.4429 6.66733 13.3327 6.44872 13.3327 6.33942C13.2225 4.80919 14.2142 3.49756 15.316 2.40454C15.867 1.85803 16.5281 1.42082 17.1892 0.983606C17.6299 0.765002 18.1809 0.109188 18.7318 0.109188C19.8336 -0.000114433 20.6049 1.09291 21.0457 1.63942C21.817 2.40454 22.4781 3.16965 23.2494 3.93477C28.5383 3.60686 33.8271 5.465 37.4633 9.39989C37.7938 9.72779 38.0142 10.0557 38.3447 10.3836C38.4549 10.3836 38.4549 10.3836 38.5651 10.3836C39.0059 10.3836 39.4466 10.165 39.8873 9.72779C39.9975 9.50919 40.2179 9.39989 40.3281 9.18128L38.8957 8.74407C38.2346 8.52547 37.904 8.41616 37.3531 7.76035C36.8021 7.10454 36.5818 6.23012 36.692 5.3557C36.9123 4.37198 37.4633 3.60686 38.2346 3.16965C39.0059 2.73244 39.8873 2.73244 40.6586 2.95105C41.5401 3.27896 42.2012 3.82547 42.642 4.59058C43.1929 5.79291 42.7521 6.99523 42.3114 7.97896C42.3114 8.08826 42.2012 8.19756 42.2012 8.30686L44.2947 9.18128L43.7438 10.6022L41.5401 9.72779C41.3197 10.0557 41.0994 10.3836 40.879 10.7115C40.4383 11.258 39.8873 11.5859 39.2262 11.6952C41.3197 14.9743 42.2012 18.7999 41.8707 22.7348C41.6503 23.8278 41.0994 26.0138 39.2262 28.3092L28.6484 38.9115C29.0892 39.8952 29.6401 40.879 30.4114 41.7534C31.954 43.3929 34.0475 44.2673 36.2512 44.2673C38.4549 44.2673 40.5484 43.5022 42.2012 41.972C43.854 40.4417 44.7355 38.365 44.7355 36.179C44.7355 33.9929 43.9642 31.9162 42.4216 30.2766C42.2012 30.058 41.9809 29.8394 41.6503 29.6208L42.7521 28.5278C42.9725 28.7464 43.3031 28.965 43.5234 29.1836C45.2864 31.1511 46.2781 33.5557 46.1679 36.179ZM40.7688 7.86965C40.7688 7.76035 40.879 7.65105 40.879 7.54175C41.3197 6.55803 41.5401 5.90221 41.2096 5.3557C40.9892 5.02779 40.6586 4.69989 40.3281 4.59058H40.2179C39.8873 4.37198 39.4466 4.37198 39.116 4.59058C38.7855 4.80919 38.4549 5.2464 38.3447 5.68361C38.2346 6.12082 38.3447 6.55802 38.5651 6.77663C38.8957 7.10454 38.8957 7.10454 39.4466 7.32314L40.7688 7.86965ZM28.6484 36.8348C28.8688 36.6162 29.0892 36.3976 29.3096 36.179C29.5299 35.9604 29.7503 35.7417 29.9707 35.5231C30.191 35.3045 30.4114 35.0859 30.6318 34.8673C30.8521 34.6487 31.0725 34.4301 31.4031 34.1022C31.6234 33.8836 31.8438 33.665 32.1744 33.3371C32.3947 33.1185 32.6151 32.8999 32.8355 32.6813C33.0559 32.4627 33.2762 32.2441 33.4966 32.0255C33.717 31.8069 33.9373 31.5883 34.1577 31.3697C34.3781 31.1511 34.4883 31.0417 34.7086 30.8231C34.8188 30.7138 35.0392 30.4952 35.1494 30.3859C35.2596 30.2766 35.3697 30.1673 35.4799 30.058C35.5901 29.9487 35.5901 29.9487 35.7003 29.8394C35.7003 29.8394 35.7003 29.8394 35.8105 29.7301C37.6836 27.872 38.5651 26.6697 39.0059 26.0138C39.3364 25.2487 39.5568 24.4836 39.667 23.7185V23.6092C40.3281 19.0185 39.0059 14.4278 35.8105 11.0394C32.2846 7.21384 27.216 5.68361 22.2577 6.23012L20.4947 4.26268C20.3846 4.15337 20.2744 4.04407 20.1642 3.82547L19.1725 2.73244C18.1809 3.38826 16.8586 4.26268 16.3077 5.2464V5.3557C16.1975 5.465 16.1975 5.5743 16.1975 5.68361C16.0873 6.01151 16.0873 6.44872 16.0873 6.88593C16.0873 6.99523 16.0873 6.99523 16.0873 7.10454C16.0873 7.21384 16.0873 7.32314 16.1975 7.43244C16.1975 7.54175 16.1975 7.54175 16.1975 7.65105C16.1975 7.76035 16.3077 7.86965 16.3077 7.97896C14.5447 8.74407 13.2225 9.72779 11.9003 10.9301C10.9086 11.9138 10.0271 12.8976 9.25585 13.9906C9.03548 13.8813 8.81511 13.772 8.48455 13.6627C8.37437 13.6627 8.26418 13.5534 8.04381 13.5534C7.93363 13.5534 7.71326 13.5534 7.60307 13.5534C7.49289 13.5534 7.3827 13.5534 7.27252 13.5534C6.06048 13.6627 4.62807 15.1929 3.74659 16.3952L3.6364 16.5045L4.84844 17.8162L6.06048 19.1278L6.6114 19.565C5.72992 22.7348 5.84011 26.1231 6.94196 29.1836C6.50122 30.058 5.95029 31.0417 5.61974 31.9162C5.28918 32.6813 5.179 33.4464 5.179 34.1022L9.69659 38.8022L10.9086 38.2557L13.0021 37.272L13.4429 37.0534C15.4262 38.2557 17.6299 38.9115 19.9438 39.1301L21.7068 44.4859C25.4531 42.9557 26.5549 39.5673 26.8855 38.6929C26.8855 38.5836 26.8855 38.4743 26.9957 38.4743L27.4364 38.0371C27.5466 37.9278 27.6568 37.8185 27.767 37.7092C27.8771 37.5999 28.0975 37.3813 28.2077 37.272C28.2077 37.1627 28.4281 36.9441 28.6484 36.8348Z" fill="black"/>
</g>
<defs>
<clipPath id="clip0_567_1872">
<rect width="238" height="47" fill="white"/>
</clipPath>
</defs>
</svg>
